<?xml version="1.0" standalone="no"?>
<!DOCTYPE svg PUBLIC "-//W3C//DTD SVG 20010904//EN"
 "http://www.w3.org/TR/2001/REC-SVG-20010904/DTD/svg10.dtd">
<svg version="1.0" xmlns="http://www.w3.org/2000/svg"
 width="700.000000pt" height="700.000000pt" viewBox="0 0 700.000000 700.000000"
 preserveAspectRatio="xMidYMid meet">
<metadata>
Created by potrace 1.11, written by Peter Selinger 2001-2013
</metadata>
<g transform="translate(0.000000,700.000000) scale(0.100000,-0.100000)"
fill="#000000" stroke="none">
<path d="M0 3500 l0 -3500 3500 0 3500 0 0 3500 0 3500 -3500 0 -3500 0 0
-3500z m5385 2999 c495 -58 841 -379 1029 -954 61 -189 107 -423 122 -632 l7
-93 -365 0 -365 0 -17 111 c-56 364 -202 574 -436 628 -69 16 -219 13 -281 -5
-229 -67 -358 -328 -335 -677 14 -204 65 -325 182 -436 95 -91 225 -167 460
-267 223 -96 326 -147 447 -220 447 -272 691 -649 772 -1190 35 -232 35 -672
0 -909 -104 -712 -448 -1172 -980 -1310 -170 -44 -435 -53 -599 -21 -562 111
-927 558 -1086 1329 -16 81 -33 200 -55 390 l-6 47 370 0 369 0 7 -57 c11 -90
59 -270 95 -357 116 -278 326 -426 605 -426 285 0 460 137 537 417 30 109 32
427 5 548 -64 278 -238 441 -667 625 -377 162 -545 262 -728 435 -173 163
-289 341 -367 565 -81 235 -110 469 -102 835 7 329 35 512 117 759 162 484
491 793 910 855 41 6 86 13 100 15 53 7 169 5 255 -5z m-3290 -98 c424 -94
758 -387 1004 -881 195 -393 309 -849 363 -1460 16 -186 16 -779 0 -970 -57
-667 -191 -1190 -412 -1617 -278 -537 -655 -834 -1120 -884 -57 -6 -361 -9
-760 -7 l-665 3 -3 2910 c-1 1601 0 2916 3 2923 4 11 134 13 748 9 719 -4 745
-5 842 -26z"/>
<path d="M1240 3505 l0 -1907 328 4 c364 5 388 9 521 75 86 43 210 155 275
247 169 240 278 595 333 1086 25 226 25 865 0 1070 -80 649 -288 1084 -595
1248 -125 67 -173 74 -534 79 l-328 5 0 -1907z"/>
</g>
</svg>
