<svg id="Logo" xmlns="http://www.w3.org/2000/svg" viewBox="0 0 249.99 77.48"><defs><style>.cls-1,.cls-3,.cls-6{fill:#fff;}.cls-2{fill:none;}.cls-2,.cls-6{stroke:#fff;stroke-miterlimit:10;}.cls-3{font-size:10px;font-family:Calibri-Light, Calibri;font-weight:300;letter-spacing:0.06em;}.cls-4{letter-spacing:0.02em;}.cls-5{letter-spacing:0.04em;}</style></defs><path class="cls-1" d="M189.59,329.89" transform="translate(-284.03 -271.37)"/><path class="cls-1" d="M370.1,295.09a25.76,25.76,0,0,1,4.07-.32c2.75,0,4.72.65,6,1.86a6.77,6.77,0,0,1,2.1,5.31,7.91,7.91,0,0,1-2.13,5.77c-1.4,1.38-3.69,2.13-6.57,2.13a31.34,31.34,0,0,1-3.48-.16ZM372,308.21a13.56,13.56,0,0,0,1.93.09c4.1,0,6.32-2.28,6.32-6.29,0-3.5-2-5.71-6-5.71a11.87,11.87,0,0,0-2.25.19Z" transform="translate(-284.03 -271.37)"/><path class="cls-1" d="M388.19,305.05l-1.53,4.66h-2l5.05-14.83H392l5.07,14.83h-2l-1.59-4.66Zm4.87-1.49-1.47-4.27c-.32-1-.54-1.86-.76-2.71h-.05c-.21.87-.45,1.77-.74,2.68l-1.46,4.3Z" transform="translate(-284.03 -271.37)"/><path class="cls-1" d="M402.7,309.71l-4.86-14.83h2.08l2.31,7.32c.63,2,1.18,3.8,1.58,5.53h.05c.42-1.72,1-3.58,1.69-5.51l2.51-7.34h2.05l-5.3,14.83Z" transform="translate(-284.03 -271.37)"/><path class="cls-1" d="M415,294.88v14.83H413V294.88Z" transform="translate(-284.03 -271.37)"/><path class="cls-1" d="M419.64,295.09a25.9,25.9,0,0,1,4.08-.32c2.74,0,4.71.65,6,1.86a6.8,6.8,0,0,1,2.1,5.31,7.88,7.88,0,0,1-2.14,5.77c-1.4,1.38-3.69,2.13-6.56,2.13a31.53,31.53,0,0,1-3.49-.16Zm1.93,13.12a13.34,13.34,0,0,0,1.92.09c4.11,0,6.32-2.28,6.32-6.29,0-3.5-2-5.71-6-5.71a11.75,11.75,0,0,0-2.24.19Z" transform="translate(-284.03 -271.37)"/><path class="cls-1" d="M441.39,307.38a6.66,6.66,0,0,0,3.43,1c2,0,3.11-1,3.11-2.52s-.81-2.19-2.81-2.94c-2.42-.86-3.92-2.13-3.92-4.21,0-2.3,1.92-4,4.81-4a6.78,6.78,0,0,1,3.27.72l-.53,1.57a5.68,5.68,0,0,0-2.8-.7c-2,0-2.81,1.2-2.81,2.21,0,1.38.9,2.06,2.95,2.85,2.51,1,3.78,2.19,3.78,4.37s-1.68,4.28-5.19,4.28a7.65,7.65,0,0,1-3.79-1Z" transform="translate(-284.03 -271.37)"/><path class="cls-1" d="M456.24,305.05l-1.53,4.66h-2l5-14.83h2.31l5.06,14.83h-2.05l-1.58-4.66Zm4.87-1.49-1.47-4.27c-.32-1-.55-1.86-.76-2.71h-.06c-.21.87-.44,1.77-.73,2.68l-1.46,4.3Z" transform="translate(-284.03 -271.37)"/><path class="cls-1" d="M468.64,309.71V294.88h2.1l4.75,7.5a41.93,41.93,0,0,1,2.65,4.83l.05,0c-.18-2-.21-3.78-.21-6.08v-6.22h1.8v14.83h-1.94l-4.72-7.51a48.72,48.72,0,0,1-2.75-5l-.07,0c.11,1.88.14,3.67.14,6.12v6.34Z" transform="translate(-284.03 -271.37)"/><path class="cls-1" d="M484.46,295.09a25.66,25.66,0,0,1,4.07-.32c2.74,0,4.71.65,6,1.86a6.8,6.8,0,0,1,2.1,5.31,7.88,7.88,0,0,1-2.14,5.77c-1.4,1.38-3.69,2.13-6.56,2.13a31.34,31.34,0,0,1-3.48-.16Zm1.92,13.12a13.34,13.34,0,0,0,1.92.09c4.11,0,6.32-2.28,6.32-6.29,0-3.5-2-5.71-6-5.71a11.75,11.75,0,0,0-2.24.19Z" transform="translate(-284.03 -271.37)"/><path class="cls-1" d="M508.12,302.76h-5.75v5.36h6.43v1.59h-8.35V294.88h8v1.6h-6.09v4.7h5.75Z" transform="translate(-284.03 -271.37)"/><path class="cls-1" d="M512.61,295.09a20,20,0,0,1,3.69-.32c2,0,3.37.39,4.29,1.22a3.69,3.69,0,0,1,1.17,2.82,3.93,3.93,0,0,1-2.8,3.78v.05a3.78,3.78,0,0,1,2.18,3,25,25,0,0,0,1.14,4.07h-2a19.2,19.2,0,0,1-1-3.55c-.44-2-1.24-2.82-3-2.87h-1.81v6.42h-1.92Zm1.92,6.75h2c2,0,3.34-1.12,3.34-2.82,0-1.92-1.39-2.76-3.41-2.76a8.73,8.73,0,0,0-1.89.16Z" transform="translate(-284.03 -271.37)"/><path class="cls-1" d="M525.54,307.38a6.66,6.66,0,0,0,3.43,1c1.95,0,3.11-1,3.11-2.52s-.81-2.19-2.81-2.94c-2.42-.86-3.92-2.13-3.92-4.21,0-2.3,1.92-4,4.81-4a6.78,6.78,0,0,1,3.27.72l-.54,1.57a5.62,5.62,0,0,0-2.8-.7c-2,0-2.8,1.2-2.8,2.21,0,1.38.9,2.06,3,2.85,2.51,1,3.78,2.19,3.78,4.37s-1.68,4.28-5.19,4.28a7.65,7.65,0,0,1-3.79-1Z" transform="translate(-284.03 -271.37)"/><line class="cls-2" x1="78.13" y1="7.48" x2="78.13" y2="69.81"/><text class="cls-3" transform="translate(86.4 53.8)">SOFT<tspan class="cls-4" x="22.94" y="0">W</tspan><tspan x="31.92" y="0">ARE DEVE</tspan><tspan class="cls-5" x="76.29" y="0">L</tspan><tspan x="80.85" y="0">OPER</tspan></text><path class="cls-6" d="M327,283.37" transform="translate(-284.03 -271.37)"/><path class="cls-1" d="M312.36,286.31c-10.26-3-20.46-1.25-26.71.33Q284.84,317.31,284,348c23.83,4.07,47.32-6.84,54.36-20.21C347,311.38,330.79,291.63,312.36,286.31ZM292.5,344a3.62,3.62,0,1,1,3.91-3.6A3.77,3.77,0,0,1,292.5,344Z" transform="translate(-284.03 -271.37)"/><path class="cls-1" d="M347.27,307.14c-1.94-2.78-4.69-6.48-8.23-10.64-11.51-13.54-19-17.3-18-20.77.81-2.79,7-5.1,28.46-4.13Z" transform="translate(-284.03 -271.37)"/></svg>