<svg id="Logo" xmlns="http://www.w3.org/2000/svg" viewBox="0 0 248.41 77.48"><defs><style>.cls-1,.cls-3{fill:#fff;}.cls-2{fill:none;}.cls-2,.cls-3{stroke:#fff;stroke-miterlimit:10;}</style></defs><path class="cls-1" d="M189.59,329.89" transform="translate(-284.03 -271.37)"/><path class="cls-1" d="M368.7,295.11a25.8,25.8,0,0,1,4.08-.32c2.74,0,4.71.65,6,1.86a6.77,6.77,0,0,1,2.1,5.31,7.88,7.88,0,0,1-2.14,5.77c-1.4,1.38-3.69,2.14-6.56,2.14a31.14,31.14,0,0,1-3.49-.17Zm1.92,13.12a13.56,13.56,0,0,0,1.93.09c4.11,0,6.32-2.28,6.32-6.29,0-3.5-2-5.71-6-5.71a11.87,11.87,0,0,0-2.25.19Z" transform="translate(-284.03 -271.37)"/><path class="cls-1" d="M386.78,305.08l-1.53,4.66h-2l5.05-14.83h2.3l5.07,14.83h-2.05L392,305.08Zm4.87-1.5-1.47-4.27c-.32-1-.54-1.85-.76-2.71h-.05c-.22.87-.45,1.78-.74,2.68l-1.46,4.3Z" transform="translate(-284.03 -271.37)"/><path class="cls-1" d="M401.27,309.74l-4.86-14.83h2.08l2.31,7.31c.63,2,1.18,3.8,1.58,5.53h.06c.41-1.71,1-3.58,1.69-5.51l2.51-7.33h2l-5.3,14.83Z" transform="translate(-284.03 -271.37)"/><path class="cls-1" d="M413.53,294.91v14.83H411.6V294.91Z" transform="translate(-284.03 -271.37)"/><path class="cls-1" d="M418.18,295.11a25.9,25.9,0,0,1,4.08-.32c2.74,0,4.71.65,6,1.86a6.77,6.77,0,0,1,2.1,5.31,7.91,7.91,0,0,1-2.13,5.77c-1.4,1.38-3.7,2.14-6.57,2.14a31.27,31.27,0,0,1-3.49-.17Zm1.93,13.12a13.34,13.34,0,0,0,1.92.09c4.11,0,6.32-2.28,6.32-6.29,0-3.5-2-5.71-6-5.71a11.75,11.75,0,0,0-2.24.19Z" transform="translate(-284.03 -271.37)"/><path class="cls-1" d="M439.9,307.4a6.65,6.65,0,0,0,3.42,1c2,0,3.12-1,3.12-2.52s-.81-2.19-2.81-2.94c-2.42-.86-3.92-2.13-3.92-4.2,0-2.31,1.92-4,4.81-4a6.8,6.8,0,0,1,3.27.71l-.54,1.57a5.62,5.62,0,0,0-2.8-.7c-2,0-2.81,1.2-2.81,2.22,0,1.37.91,2,3,2.84,2.51,1,3.78,2.2,3.78,4.37S446.7,310,443.19,310a7.62,7.62,0,0,1-3.79-1Z" transform="translate(-284.03 -271.37)"/><path class="cls-1" d="M454.73,305.08l-1.54,4.66h-2l5-14.83h2.31l5.07,14.83h-2.05L460,305.08Zm4.87-1.5-1.47-4.27c-.32-1-.54-1.85-.76-2.71h-.05c-.22.87-.45,1.78-.74,2.68l-1.46,4.3Z" transform="translate(-284.03 -271.37)"/><path class="cls-1" d="M467.11,309.74V294.91h2.11L474,302.4a41.93,41.93,0,0,1,2.65,4.83l.05,0c-.17-2-.21-3.79-.21-6.09v-6.21h1.81v14.83h-1.95l-4.72-7.52a47.82,47.82,0,0,1-2.76-5l-.06,0c.11,1.88.14,3.66.14,6.12v6.34Z" transform="translate(-284.03 -271.37)"/><path class="cls-1" d="M482.92,295.11a25.66,25.66,0,0,1,4.07-.32c2.75,0,4.72.65,6,1.86a6.8,6.8,0,0,1,2.1,5.31,7.88,7.88,0,0,1-2.14,5.77c-1.4,1.38-3.69,2.14-6.57,2.14a31.07,31.07,0,0,1-3.48-.17Zm1.92,13.12a13.56,13.56,0,0,0,1.93.09c4.11,0,6.32-2.28,6.32-6.29,0-3.5-2-5.71-6-5.71a11.79,11.79,0,0,0-2.25.19Z" transform="translate(-284.03 -271.37)"/><path class="cls-1" d="M506.58,302.78h-5.76v5.36h6.44v1.6H498.9V294.91h8v1.59h-6.1v4.7h5.76Z" transform="translate(-284.03 -271.37)"/><path class="cls-1" d="M511.05,295.11a19.77,19.77,0,0,1,3.68-.32c2,0,3.38.39,4.3,1.22a3.69,3.69,0,0,1,1.17,2.82,3.93,3.93,0,0,1-2.8,3.78v.05c1.13.4,1.81,1.47,2.18,3a24.3,24.3,0,0,0,1.14,4.07h-2a20.33,20.33,0,0,1-1-3.55c-.44-2-1.24-2.82-3-2.88H513v6.43h-1.91Zm1.91,6.75h2c2.05,0,3.35-1.12,3.35-2.82,0-1.92-1.39-2.76-3.41-2.76a8.05,8.05,0,0,0-1.9.17Z" transform="translate(-284.03 -271.37)"/><path class="cls-1" d="M524,307.4a6.66,6.66,0,0,0,3.43,1c2,0,3.11-1,3.11-2.52s-.81-2.19-2.81-2.94c-2.42-.86-3.92-2.13-3.92-4.2,0-2.31,1.92-4,4.81-4a6.8,6.8,0,0,1,3.27.71l-.53,1.57a5.7,5.7,0,0,0-2.81-.7c-2,0-2.8,1.2-2.8,2.22,0,1.37.9,2,2.95,2.84,2.51,1,3.78,2.2,3.78,4.37s-1.67,4.28-5.19,4.28a7.62,7.62,0,0,1-3.79-1Z" transform="translate(-284.03 -271.37)"/><line class="cls-2" x1="78.13" y1="7.48" x2="78.13" y2="69.81"/><path class="cls-3" d="M327,283.37" transform="translate(-284.03 -271.37)"/><path class="cls-1" d="M312.36,286.31c-10.26-3-20.46-1.25-26.71.33Q284.84,317.31,284,348c23.83,4.07,47.32-6.84,54.36-20.21C347,311.38,330.79,291.63,312.36,286.31ZM292.5,344a3.62,3.62,0,1,1,3.91-3.6A3.77,3.77,0,0,1,292.5,344Z" transform="translate(-284.03 -271.37)"/><path class="cls-1" d="M347.27,307.14c-1.94-2.78-4.69-6.48-8.23-10.64-11.51-13.54-19-17.3-18-20.77.81-2.79,7-5.1,28.46-4.13Z" transform="translate(-284.03 -271.37)"/><path class="cls-1" d="M369.58,324.89a2.9,2.9,0,0,0,1.62.49,1.57,1.57,0,0,0,1.79-1.54c0-.83-.43-1.32-1.5-1.74s-1.91-1-1.91-2a2,2,0,0,1,2.16-1.88,2.8,2.8,0,0,1,1.47.35l-.2.44a2.4,2.4,0,0,0-1.31-.35c-1.2,0-1.6.76-1.6,1.35,0,.82.47,1.24,1.53,1.66,1.23.49,1.88,1.05,1.88,2.16a2.08,2.08,0,0,1-2.35,2,3.31,3.31,0,0,1-1.78-.5Z" transform="translate(-284.03 -271.37)"/><path class="cls-1" d="M381.76,321.93c0,2.61-1.6,3.9-3.32,3.9s-3.23-1.43-3.23-3.75,1.47-3.91,3.32-3.91S381.76,319.63,381.76,321.93Zm-6,.13c0,1.67,1,3.33,2.73,3.33s2.74-1.59,2.74-3.43c0-1.56-.86-3.35-2.72-3.35S375.75,320.33,375.75,322.06Z" transform="translate(-284.03 -271.37)"/><path class="cls-1" d="M383.85,318.29h3.66v.45h-3.14v2.94h2.88v.44h-2.88v3.59h-.52Z" transform="translate(-284.03 -271.37)"/><path class="cls-1" d="M391.11,318.74h-2.42v-.45h5.36v.45h-2.42v7h-.52Z" transform="translate(-284.03 -271.37)"/><path class="cls-1" d="M397.34,325.71l-2-7.42h.54l1.08,4.19c.24.95.47,1.84.61,2.54h0c.12-.69.39-1.57.67-2.55l1.22-4.18H400l1.1,4.15c.24.9.48,1.83.6,2.58h0c.17-.8.41-1.61.68-2.55l1.22-4.18h.53L402,325.71h-.5l-1.12-4.27a22,22,0,0,1-.57-2.51h0a20.25,20.25,0,0,1-.67,2.51l-1.26,4.27Z" transform="translate(-284.03 -271.37)"/><path class="cls-1" d="M406.14,323.12l-.92,2.59h-.53l2.68-7.42h.51l2.67,7.42H410l-.94-2.59Zm2.78-.44L408,320.2a12.62,12.62,0,0,1-.38-1.31h0a13.2,13.2,0,0,1-.39,1.29l-.91,2.5Z" transform="translate(-284.03 -271.37)"/><path class="cls-1" d="M412.46,318.4a7.58,7.58,0,0,1,1.61-.16,2.68,2.68,0,0,1,2,.62,1.88,1.88,0,0,1,.52,1.32,2,2,0,0,1-1.46,1.93v0a1.91,1.91,0,0,1,1.15,1.58,9.67,9.67,0,0,0,.55,2h-.54a9.82,9.82,0,0,1-.48-1.8c-.22-1.07-.68-1.56-1.66-1.6H413v3.4h-.52Zm.52,3.49h1.18c1.15,0,1.89-.64,1.89-1.62,0-1.14-.84-1.6-2-1.6a4.69,4.69,0,0,0-1.07.1Z" transform="translate(-284.03 -271.37)"/><path class="cls-1" d="M422.28,322h-3v3.25h3.32v.44h-3.84v-7.42h3.67v.45h-3.15v2.84h3Z" transform="translate(-284.03 -271.37)"/><path class="cls-1" d="M431.36,322h-3v3.25h3.32v.44h-3.84v-7.42h3.66v.45h-3.14v2.84h3Z" transform="translate(-284.03 -271.37)"/><path class="cls-1" d="M433.77,325.71v-7.42h.5l2.89,4.39a23.54,23.54,0,0,1,1.39,2.33h0c-.07-1-.08-1.85-.08-3v-3.7H439v7.42h-.49l-2.83-4.32a24.06,24.06,0,0,1-1.44-2.39h0c.06.92.07,1.71.07,2.95v3.75Z" transform="translate(-284.03 -271.37)"/><path class="cls-1" d="M446.88,325.38a5.89,5.89,0,0,1-2.16.4,3.57,3.57,0,0,1-2.62-1,3.83,3.83,0,0,1-1-2.78,3.64,3.64,0,0,1,3.87-3.81,4.24,4.24,0,0,1,1.72.33l-.17.44a3.43,3.43,0,0,0-1.58-.32,3.09,3.09,0,0,0-3.3,3.33,3,3,0,0,0,3.19,3.34,3.59,3.59,0,0,0,1.55-.26v-2.61h-1.72V322h2.24Z" transform="translate(-284.03 -271.37)"/><path class="cls-1" d="M449.72,318.29v7.42h-.52v-7.42Z" transform="translate(-284.03 -271.37)"/><path class="cls-1" d="M452.29,325.71v-7.42h.5l2.89,4.39a23.54,23.54,0,0,1,1.39,2.33h0c-.07-1-.08-1.85-.08-3v-3.7h.51v7.42H457l-2.83-4.32a24.06,24.06,0,0,1-1.44-2.39h0c.06.92.07,1.71.07,2.95v3.75Z" transform="translate(-284.03 -271.37)"/><path class="cls-1" d="M463.57,322h-3v3.25h3.31v.44h-3.84v-7.42h3.67v.45h-3.14v2.84h3Z" transform="translate(-284.03 -271.37)"/><path class="cls-1" d="M469.47,322h-3v3.25h3.32v.44H466v-7.42h3.67v.45H466.5v2.84h3Z" transform="translate(-284.03 -271.37)"/><path class="cls-1" d="M471.88,318.4a7.48,7.48,0,0,1,1.6-.16,2.69,2.69,0,0,1,2,.62,1.88,1.88,0,0,1,.52,1.32,2,2,0,0,1-1.46,1.93v0a1.92,1.92,0,0,1,1.15,1.58,9.67,9.67,0,0,0,.55,2h-.54a9.82,9.82,0,0,1-.48-1.8c-.23-1.07-.68-1.56-1.66-1.6H472.4v3.4h-.52Zm.52,3.49h1.18a1.66,1.66,0,0,0,1.89-1.62c0-1.14-.84-1.6-2-1.6a4.69,4.69,0,0,0-1.07.1Z" transform="translate(-284.03 -271.37)"/></svg>